<?xml version="1.0" encoding="utf-8"?>
<!-- Generator: Adobe Illustrator 23.0.1, SVG Export Plug-In . SVG Version: 6.00 Build 0)  -->
<svg version="1.1" id="图层_1" xmlns="http://www.w3.org/2000/svg" xmlns:xlink="http://www.w3.org/1999/xlink" x="0px" y="0px"
	 viewBox="0 0 176 33" style="enable-background:new 0 0 176 33;" xml:space="preserve">
<style type="text/css">
	.st0{fill:#009A61;}
</style>
<g>
	<path d="M6.3,25.5c-2.3,0-4.1-0.6-5.9-1.9v-0.3l1.3-2.7c0.9,0.8,2.4,1.7,3.8,1.7c1.1,0,2.2-0.4,2.2-1.7c0-1.1-1-1.5-2.2-2
		c-0.4-0.2-0.9-0.4-1.4-0.6c-2-1-3.4-2.2-3.4-4.7c0-4.5,4.3-5,6.2-5c2,0,4,0.5,5.3,1.3V10l-1.3,2.7c-1-0.7-2.2-1.1-3.4-1.1
		c-1.6,0-1.9,0.8-1.9,1.5c0,1.1,1,1.5,2.4,2c0.3,0.1,0.6,0.2,0.9,0.4c2.4,1,3.8,2.1,3.8,4.8C12.6,24.8,8.7,25.5,6.3,25.5z
		 M21.6,25.5c-6.7,0-7.7-5.4-7.7-8.6c0-3.8,1.3-8.4,7.4-8.4c5.8,0,7,4.2,7,7.9c0,0.5-0.1,1.4-0.3,2c-0.8,0-3.7,0-6-0.1h-3.2v0.2
		c0,0.9,0.3,3.9,3.4,3.9c1.2,0,2.3-0.5,3.3-1.6l1.9,2.3v0.3C25.6,24.7,23.8,25.5,21.6,25.5z M21.3,11.8c-1.6,0-2.4,1.3-2.5,3.9v0.2
		h4.8v-0.2C23.7,13.1,22.9,11.8,21.3,11.8z M37.4,32.5c-2.2,0-4.4-0.6-6.2-1.6l1.2-3.1h0.2c1,0.6,2.4,1.4,4.1,1.4c1.9,0,3-1,3-2.7
		c0-0.2,0.1-1.7,0.2-2.7v-0.1l-0.4-0.2l-0.1,0.1c-1.1,1-2.2,1.9-4.1,1.9c-3.6,0-5.4-2.7-5.4-8.5c0-4.1,1.4-8.4,5.4-8.4
		c1.5,0,3,0.7,4.2,2l0.1,0.1l0.3-0.1l0.3-1.3l0.3-0.3l4.1,0.1c0,0.6-0.1,2.1-0.1,2.9v14C44.6,32,39.1,32.5,37.4,32.5z M37.4,12.1
		c-2.4,0-2.4,3.6-2.4,4.8c0,1.6,0,5.2,2,5.2c0.8,0,1.8-0.6,2.5-1.6v-0.1l0.1-7.2v-0.1C39,12.6,38.2,12.1,37.4,12.1z M64.6,25
		c0-0.7,0.2-10.2,0.2-10.3c0-1.6-0.2-2.6-1.5-2.6c-0.7,0-1.6,0.4-2.3,1l-0.1-0.1v11.9H56c0-0.7,0.1-10.2,0.1-10.3
		c0-1.6-0.2-2.6-1.5-2.6c-0.6,0-1.6,0.4-2.3,1l-0.1,0.1L52.3,25h-5v-12c0-1.1-0.1-3.2-0.1-4.1l4.3-0.1L51.8,9l0.2,1.4l0.3,0.1
		l0.1-0.1c1.4-1.2,3.4-2,4.9-2c1.4,0,2.5,0.7,3.1,2.1l0.1,0.3l0.2-0.2c1.5-1.3,3.5-2.1,5.2-2.1c2.4,0,3.8,1.7,3.8,4.8
		c0,0.2-0.1,11-0.1,11.7C69.6,25,64.6,25,64.6,25z M79.6,25.5c-6.7,0-7.7-5.4-7.7-8.6c0-3.8,1.3-8.4,7.4-8.4c5.8,0,7,4.2,7,7.9
		c0,0.5-0.1,1.4-0.3,2c-0.8,0-3.7,0-6-0.1h-3.2v0.2c0,0.9,0.3,3.9,3.4,3.9c1.2,0,2.3-0.5,3.3-1.6l1.9,2.3v0.3
		C83.6,24.7,81.8,25.5,79.6,25.5z M79.3,11.8c-1.6,0-2.4,1.3-2.5,3.9v0.2h4.8v-0.2C81.6,13.1,80.9,11.8,79.3,11.8z M97.2,25
		c0-0.7,0.2-10.2,0.2-10.3c0-1.7-0.3-2.6-1.6-2.6c-0.7,0-1.6,0.4-2.5,1l-0.1,0.1l0.1,11.9h-5V13c0-1.1-0.1-3.1-0.1-4.1l4.3-0.1
		l0.3,0.2l0.2,1.4l0.3,0.1l0.1-0.1c1.5-1.2,3.6-2,5.2-2c2.5,0,3.8,1.7,3.8,4.8c0,0.2-0.1,11-0.1,11.7h-5.1L97.2,25z M110.3,25
		c-4.1,0-4.5-2.5-4.5-5c0-0.7,0-4.3,0.1-7.4v-0.2h-1.8l0.1-3.5h1.8V8.7V4.3l0.2-0.2h4.7c0,0.6,0,2.4-0.1,4.6v0.2h2.7l-0.1,3.5h-2.7
		v0.2c0.1,3,0.1,6.2,0.1,6.8c0,1.7,0,2.3,1.6,2.3h0.9v3.1l-0.2,0.2C113.1,25,110.3,25,110.3,25z"/>
	<g>
		<path class="st0" d="M117.2,25c0-1.4,0-9.4,0.1-12.4v-0.2h-1.9l0.1-3.5h1.8V8.7c0-0.1-0.1-2.8-0.1-2.8c0-4.4,2.8-5.4,5.1-5.4
			c1.4,0,2.6,0.2,3.7,0.7v0.4l-1,2.8c-0.5-0.3-1-0.4-1.4-0.4c-1.1,0-1.5,0.8-1.5,2.5v2.4h2.9l-0.1,3.5h-2.8v0.2
			c0.1,2.9,0.1,11,0.1,12.4L117.2,25L117.2,25z M130,25.4c-3.5,0-3.9-3.4-3.9-4.8c0-5.2,4.1-5.5,8.5-5.8h0.2l0.1-0.2v-0.9
			c0-1.2-0.7-1.9-2.2-1.9c-1.9,0-3.6,0.5-4.8,1l-1.1-2.9V9.7c2.4-0.9,4.9-1.3,7.5-1.3c3.7,0,5.6,1.7,5.6,5v7.9
			c0,1.3,0.1,2.9,0.1,3.7h-4.1l-0.3-0.3l-0.4-1.3l-0.3-0.1l-0.1,0.1C133.4,24.8,131.9,25.4,130,25.4L130,25.4z M134.5,17.2
			c-2.5,0.1-3.7,0.1-3.7,2.7c0,2,0.8,2.4,1.5,2.4c0.8,0,1.8-0.5,2.5-1.2l0.1-0.1v-3.5l-0.1-0.1l-0.2-0.1
			C134.6,17.2,134.5,17.2,134.5,17.2z M146.5,25.4c-2.7,0-4-1.6-4-4.8c0-0.2,0.1-11,0.1-11.8h4.8l0.2,0.2c0,0.5-0.1,10.1-0.1,10.3
			c0,1.7,0.6,2.6,1.6,2.6c0.9,0,2-0.5,2.7-1.2l0.1-0.1l-0.1-11.9h4.8l0.2,0.2V21c0,1.3,0.1,2.9,0.1,3.7h-4.1l-0.3-0.3l-0.4-1.4
			l-0.4-0.1l-0.1,0.1C150.2,24.7,148.6,25.4,146.5,25.4z M159.7,25c-0.1-0.8-0.1-2.6-0.1-3.7V4.9c0-1.1,0-2.8-0.1-3.7l4.9-0.1
			l0.2,0.2v20c0,1.2,0.1,2.9,0.1,3.7L159.7,25L159.7,25z M172.6,25c-4.1,0-4.5-2.5-4.5-5c0-0.7,0-4.3,0.1-7.4v-0.2h-1.8l0.1-3.5h1.8
			V8.7V4.3l0.2-0.2h4.7c0,0.6,0,2.4-0.1,4.6v0.2h2.7l-0.1,3.5H173v0.2c0.1,3,0.1,6.2,0.1,6.8c0,1.7,0,2.3,1.6,2.3h0.9v3.1l-0.2,0.2
			H172.6z"/>
	</g>
</g>
</svg>
